<svg xmlns="http://www.w3.org/2000/svg" style="display: none;">

    <symbol id="pdf" viewBox="0 0 16 16">
        <path d='M4 0a2 2 0 0 0-2 2v12a2 2 0 0 0 2 2h8a2 2 0 0 0 2-2V2a2 2 0 0 0-2-2zm0 1h8a1 1 0 0 1 1 1v12a1 1 0 0 1-1 1H4a1 1 0 0 1-1-1V2a1 1 0 0 1 1-1'/>
        <path d='M4.603 12.087a.8.8 0 0 1-.438-.42c-.195-.388-.13-.776.08-1.102.198-.307.526-.568.897-.787a7.7 7.7 0 0 1 1.482-.645 20 20 0 0 0 1.062-2.227 7.3 7.3 0 0 1-.43-1.295c-.086-.4-.119-.796-.046-1.136.075-.354.274-.672.65-.823.192-.077.4-.12.602-.077a.7.7 0 0 1 .477.365c.088.164.12.356.127.538.007.187-.012.395-.047.614-.084.51-.27 1.134-.52 1.794a11 11 0 0 0 .98 1.686 5.8 5.8 0 0 1 1.334.05c.364.065.734.195.96.465.12.144.193.32.2.518.007.192-.047.382-.138.563a1.04 1.04 0 0 1-.354.416.86.86 0 0 1-.51.138c-.331-.014-.654-.196-.933-.417a5.7 5.7 0 0 1-.911-.95 11.6 11.6 0 0 0-1.997.406 11.3 11.3 0 0 1-1.021 1.51c-.29.35-.608.655-.926.787a.8.8 0 0 1-.58.029m1.379-1.901q-.25.115-.459.238c-.328.194-.541.383-.647.547-.094.145-.096.25-.04.361q.016.032.026.044l.035-.012c.137-.056.355-.235.635-.572a8 8 0 0 0 .45-.606m1.64-1.33a13 13 0 0 1 1.01-.193 12 12 0 0 1-.51-.858 21 21 0 0 1-.5 1.05zm2.446.45q.226.244.435.41c.24.19.407.253.498.256a.1.1 0 0 0 .07-.015.3.3 0 0 0 .094-.125.44.44 0 0 0 .059-.2.1.1 0 0 0-.026-.063c-.052-.062-.2-.152-.518-.209a4 4 0 0 0-.612-.053zM8.078 5.8a7 7 0 0 0 .2-.828q.046-.282.038-.465a.6.6 0 0 0-.032-.198.5.5 0 0 0-.145.04c-.087.035-.158.106-.196.283-.04.192-.03.469.046.822q.036.167.09.346z'/>
    </symbol>

    <symbol id="poubelle" viewBox="0 0 16 16">
        <path d="M5.5 5.5A.5.5 0 0 1 6 6v6a.5.5 0 0 1-1 0V6a.5.5 0 0 1 .5-.5m2.5 0a.5.5 0 0 1 .5.5v6a.5.5 0 0 1-1 0V6a.5.5 0 0 1 .5-.5m3 .5a.5.5 0 0 0-1 0v6a.5.5 0 0 0 1 0z"/>
        <path d="M14.5 3a1 1 0 0 1-1 1H13v9a2 2 0 0 1-2 2H5a2 2 0 0 1-2-2V4h-.5a1 1 0 0 1-1-1V2a1 1 0 0 1 1-1H6a1 1 0 0 1 1-1h2a1 1 0 0 1 1 1h3.5a1 1 0 0 1 1 1zM4.118 4 4 4.059V13a1 1 0 0 0 1 1h6a1 1 0 0 0 1-1V4.059L11.882 4zM2.5 3h11V2h-11z"/>
    </symbol>

    <symbol id="upload" viewBox="0 0 16 16">
        <path d="M4.406 1.342A5.53 5.53 0 0 1 8 0c2.69 0 4.923 2 5.166 4.579C14.758 4.804 16 6.137 16 7.773 16 9.569 14.502 11 12.687 11H10a.5.5 0 0 1 0-1h2.688C13.979 10 15 8.988 15 7.773c0-1.216-1.02-2.228-2.313-2.228h-.5v-.5C12.188 2.825 10.328 1 8 1a4.53 4.53 0 0 0-2.941 1.1c-.757.652-1.153 1.438-1.153 2.055v.448l-.445.049C2.064 4.805 1 5.952 1 7.318 1 8.785 2.23 10 3.781 10H6a.5.5 0 0 1 0 1H3.781C1.708 11 0 9.366 0 7.318c0-1.763 1.266-3.223 2.942-3.593.143-.863.698-1.723 1.464-2.383"/>
        <path d="M7.646 4.146a.5.5 0 0 1 .708 0l3 3a.5.5 0 0 1-.708.708L8.5 5.707V14.5a.5.5 0 0 1-1 0V5.707L5.354 7.854a.5.5 0 1 1-.708-.708z"/>
    </symbol>

    <symbol id="manquant" viewBox="0 0 16 16">
        <path d="M6.854 7.146a.5.5 0 1 0-.708.708L7.293 9l-1.147 1.146a.5.5 0 0 0 .708.708L8 9.707l1.146 1.147a.5.5 0 0 0 .708-.708L8.707 9l1.147-1.146a.5.5 0 0 0-.708-.708L8 8.293z"/>
        <path d="M14 14V4.5L9.5 0H4a2 2 0 0 0-2 2v12a2 2 0 0 0 2 2h8a2 2 0 0 0 2-2M9.5 3A1.5 1.5 0 0 0 11 4.5h2V14a1 1 0 0 1-1 1H4a1 1 0 0 1-1-1V2a1 1 0 0 1 1-1h5.5z"/>
    </symbol>

    <symbol id="ajouter" viewBox="0 0 16 16">
        <path d="M14 1a1 1 0 0 1 1 1v12a1 1 0 0 1-1 1H2a1 1 0 0 1-1-1V2a1 1 0 0 1 1-1zM2 0a2 2 0 0 0-2 2v12a2 2 0 0 0 2 2h12a2 2 0 0 0 2-2V2a2 2 0 0 0-2-2z"/>
        <path d="M8 4a.5.5 0 0 1 .5.5v3h3a.5.5 0 0 1 0 1h-3v3a.5.5 0 0 1-1 0v-3h-3a.5.5 0 0 1 0-1h3v-3A.5.5 0 0 1 8 4"/>
    </symbol>

    <symbol id="supprimer" viewBox="0 0 16 16">
        <path d="M4.646 4.646a.5.5 0 0 1 .708 0L8 7.293l2.646-2.647a.5.5 0 0 1 .708.708L8.707 8l2.647 2.646a.5.5 0 0 1-.708.708L8 8.707l-2.646 2.647a.5.5 0 0 1-.708-.708L7.293 8 4.646 5.354a.5.5 0 0 1 0-.708"/>
    </symbol>

    <symbol id="oeil" viewBox="0 0 24 24">
        <path d="M12 5C7 5 2.73 8.11 1 12c1.73 3.89 6 7 11 7s9.27-3.11 11-7c-1.73-3.89-6-7-11-7zm0 12a5 5 0 1 1 0-10 5 5 0 0 1 0 10z"/>
        <circle cx="12" cy="12" r="2.5"/>
    </symbol>

    <symbol id="oeil-barre" viewBox="0 0 24 24">
        <path d="M2 2l20 20M12 5c-7 0-11 7-11 7s4 7 11 7 11-7 11-7-4-7-11-7zm0 12a5 5 0 1 1 0-10 5 5 0 0 1 0 10z"/>
    </symbol>


</svg>
